<?xml version="1.0" encoding="utf-8"?>
<!-- Generator: Adobe Illustrator 19.2.1, SVG Export Plug-In . SVG Version: 6.00 Build 0)  -->
<svg version="1.1" id="Layer_1" xmlns="http://www.w3.org/2000/svg" xmlns:xlink="http://www.w3.org/1999/xlink" x="0px" y="0px"
	 viewBox="0 0 236.9 41.4" style="enable-background:new 0 0 236.9 41.4;" xml:space="preserve">
<style type="text/css">
	.st0{fill:#FFFFFF;}
</style>
<g>
	<g>
		<path class="st0" d="M75.4,41.4H62.6c0,0-2.8-4.7-9-4.7c-6.1,0-9,4.7-9,4.7h-13v-9.5l1.5-0.6c0.1,0,5.7-2.3,7.2-6.7
			c1.4-4.1-1.1-6.1-1.1-6.1l-0.9-0.7V6.4h26.1V11H42.9v4.7c1.4,1.5,3.7,5.4,2,10.3c-1.6,4.3-6.2,7.8-8.7,9v1.8h6.2
			c4.2-4,7.9-4.7,11.2-4.7c5.3,0,8.5,2.2,11.1,4.7h6v-1.3C64,31.2,61.3,23.3,64.4,16c2.4-5.6,7.4-8,11.1-8.8V4.6H36.2v14.1h-9.9
			C7.8,18.7,0,4.4,0,4.4h29.4V9H11c4.4,3.2,9.8,5,15.3,5h5.3V0h48.5v12c0,0-2.9-0.7-5.8,0.7c-2.6,1.2-5.3,3.8-5.9,7
			c-2,9.5,7,12.3,7,12.3S75.4,41.4,75.4,41.4z"/>
	</g>
	<g>
		<path class="st0" d="M108.3,29.2h-3.4V15.9h-5.7v13.3h-3.4V12.6h12.4L108.3,29.2L108.3,29.2z"/>
		<path class="st0" d="M115.2,28.8v6.9h-3.4V12.6h3.4v1.1c0.9-1,1.9-1.4,3.1-1.4c4.6,0,6.9,2.9,6.9,8.8c0,2.7-0.6,4.8-1.9,6.2
			c-1.3,1.5-3,2.2-5.2,2.2C117.1,29.5,116.1,29.3,115.2,28.8z M115.2,16.7v8.7c0.6,0.6,1.3,0.9,2.1,0.9c1.5,0,2.6-0.4,3.3-1.3
			c0.7-0.9,1-2.2,1-4.1s-0.3-3.2-1-4.1c-0.6-0.8-1.8-1.3-3.4-1.3C116.6,15.6,115.9,15.9,115.2,16.7z"/>
		<path class="st0" d="M127.1,20.8c0-2.5,0.6-4.6,1.9-6.2s2.9-2.4,5-2.4c2.2,0,3.9,0.8,5.1,2.3c1.2,1.5,1.8,3.6,1.8,6.2
			c0,2.7-0.6,4.8-1.9,6.4c-1.3,1.5-2.9,2.3-5,2.3c-2.2,0-3.9-0.8-5.1-2.3S127.1,23.5,127.1,20.8z M130.6,20.8c0,3.7,1.1,5.5,3.4,5.5
			c1,0,1.9-0.5,2.5-1.4s0.9-2.3,0.9-4.1c0-3.6-1.1-5.4-3.4-5.4c-1,0-1.9,0.5-2.5,1.4C130.9,17.8,130.6,19.1,130.6,20.8z"/>
		<path class="st0" d="M160.9,29.2h-3.4c-0.7-4.7-1.1-7.3-1.1-7.8s-0.1-0.9-0.1-1.1h-0.1c-0.2,0.7-0.4,1.2-0.5,1.6l-3.4,7.7H151
			l-2.5-5.7c-0.7-1.5-1-2.4-1.2-2.8c-0.1-0.3-0.2-0.6-0.3-0.9l0,0c0,0.7-0.1,1.6-0.3,2.8l-0.9,6.2h-3.3l2.7-16.9h1.3l5.2,11.8
			l5.1-11.8h1.2L160.9,29.2z"/>
		<path class="st0" d="M174.8,13.9l-1.4,2.9c-0.8-0.9-1.9-1.3-3.2-1.3s-2.3,0.5-3,1.4c-0.7,1-1.1,2.3-1.1,4.1c0,3.5,1.4,5.2,4.3,5.2
			c1.3,0,2.4-0.5,3.3-1.4l1.2,3c-1,0.7-1.9,1.2-2.6,1.3c-0.7,0.2-1.6,0.3-2.5,0.3c-2.2,0-3.9-0.7-5.2-2.2s-1.9-3.6-1.9-6.2
			s0.7-4.7,2.1-6.4c1.4-1.6,3.3-2.4,5.7-2.4C172.1,12.3,173.6,12.8,174.8,13.9z"/>
		<path class="st0" d="M190.1,29.2h-3.4V15.9H181v13.3h-3.4V12.6H190v16.6H190.1z"/>
		<path class="st0" d="M197.1,28.8v6.9h-3.4V12.6h3.4v1.1c0.9-1,1.9-1.4,3.1-1.4c4.6,0,6.9,2.9,6.9,8.8c0,2.7-0.6,4.8-1.9,6.2
			c-1.3,1.5-3,2.2-5.2,2.2C198.9,29.5,198,29.3,197.1,28.8z M197.1,16.7v8.7c0.6,0.6,1.3,0.9,2.1,0.9c1.5,0,2.6-0.4,3.3-1.3
			s1-2.2,1-4.1s-0.3-3.2-1-4.1c-0.6-0.8-1.8-1.3-3.4-1.3C198.4,15.6,197.7,15.9,197.1,16.7z"/>
		<path class="st0" d="M208.9,20.8c0-2.5,0.6-4.6,1.9-6.2s2.9-2.4,5-2.4c2.2,0,3.9,0.8,5.1,2.3c1.2,1.5,1.8,3.6,1.8,6.2
			c0,2.7-0.6,4.8-1.9,6.4c-1.3,1.5-2.9,2.3-5,2.3c-2.2,0-3.9-0.8-5.1-2.3S208.9,23.5,208.9,20.8z M212.4,20.8c0,3.7,1.1,5.5,3.4,5.5
			c1,0,1.9-0.5,2.5-1.4s0.9-2.3,0.9-4.1c0-3.6-1.1-5.4-3.4-5.4c-1,0-1.9,0.5-2.5,1.4C212.7,17.8,212.4,19.1,212.4,20.8z"/>
		<path class="st0" d="M236.8,13.9l-1.4,2.9c-0.8-0.9-1.9-1.3-3.2-1.3s-2.3,0.5-3,1.4c-0.7,1-1.1,2.3-1.1,4.1c0,3.5,1.4,5.2,4.3,5.2
			c1.3,0,2.4-0.5,3.3-1.4l1.2,3c-1,0.7-1.9,1.2-2.6,1.3c-0.7,0.2-1.6,0.3-2.5,0.3c-2.2,0-3.9-0.7-5.2-2.2s-1.9-3.6-1.9-6.2
			s0.7-4.7,2.1-6.4c1.4-1.6,3.3-2.4,5.7-2.4C234.1,12.3,235.6,12.8,236.8,13.9z"/>
	</g>
</g>
</svg>
